<svg width="24" height="24" viewBox="0 0 24 24" fill="none" xmlns="http://www.w3.org/2000/svg">
<path d="M9.6 19.8C9.6 20.2774 9.41036 20.7352 9.07279 21.0728C8.73523 21.4104 8.27739 21.6 7.8 21.6C7.32261 21.6 6.86477 21.4104 6.52721 21.0728C6.18964 20.7352 6 20.2774 6 19.8C6 19.3226 6.18964 18.8648 6.52721 18.5272C6.86477 18.1896 7.32261 18 7.8 18C8.27739 18 8.73523 18.1896 9.07279 18.5272C9.41036 18.8648 9.6 19.3226 9.6 19.8ZM18 19.8C18 20.2774 17.8104 20.7352 17.4728 21.0728C17.1352 21.4104 16.6774 21.6 16.2 21.6C15.7226 21.6 15.2648 21.4104 14.9272 21.0728C14.5896 20.7352 14.4 20.2774 14.4 19.8C14.4 19.3226 14.5896 18.8648 14.9272 18.5272C15.2648 18.1896 15.7226 18 16.2 18C16.6774 18 17.1352 18.1896 17.4728 18.5272C17.8104 18.8648 18 19.3226 18 19.8Z" fill="black"/>
<path d="M3.5999 4.7998C3.28164 4.7998 2.97642 4.92623 2.75137 5.15128C2.52633 5.37632 2.3999 5.68154 2.3999 5.9998V17.9998C2.3999 18.3181 2.52633 18.6233 2.75137 18.8483C2.97642 19.0734 3.28164 19.1998 3.5999 19.1998H4.8599C4.99761 18.5216 5.36554 17.9119 5.90135 17.474C6.43715 17.036 7.10789 16.7968 7.7999 16.7968C8.49192 16.7968 9.16265 17.036 9.69846 17.474C10.2343 17.9119 10.6022 18.5216 10.7399 19.1998H11.9999C12.3182 19.1998 12.6234 19.0734 12.8484 18.8483C13.0735 18.6233 13.1999 18.3181 13.1999 17.9998V5.9998C13.1999 5.68154 13.0735 5.37632 12.8484 5.15128C12.6234 4.92623 12.3182 4.7998 11.9999 4.7998H3.5999ZM16.7999 8.3998C16.4816 8.3998 16.1764 8.52623 15.9514 8.75128C15.7263 8.97632 15.5999 9.28154 15.5999 9.5998V16.8598C15.986 16.7809 16.3838 16.7789 16.7707 16.8538C17.1576 16.9287 17.5259 17.0791 17.8547 17.2964C18.1834 17.5137 18.4661 17.7937 18.6866 18.1203C18.9072 18.4468 19.0612 18.8137 19.1399 19.1998H20.3999C20.7182 19.1998 21.0234 19.0734 21.2484 18.8483C21.4735 18.6233 21.5999 18.3181 21.5999 17.9998V9.5998C21.5999 9.28154 21.4735 8.97632 21.2484 8.75128C21.0234 8.52623 20.7182 8.3998 20.3999 8.3998H16.7999Z" fill="black"/>
</svg>
