<svg width="22" height="21" viewBox="0 0 22 21" fill="none" xmlns="http://www.w3.org/2000/svg">
<path d="M8.8 17.325C8.8 17.7427 8.62616 18.1433 8.31673 18.4387C8.00729 18.7341 7.58761 18.9 7.15 18.9C6.71239 18.9 6.29271 18.7341 5.98327 18.4387C5.67384 18.1433 5.5 17.7427 5.5 17.325C5.5 16.9073 5.67384 16.5067 5.98327 16.2113C6.29271 15.9159 6.71239 15.75 7.15 15.75C7.58761 15.75 8.00729 15.9159 8.31673 16.2113C8.62616 16.5067 8.8 16.9073 8.8 17.325ZM16.5 17.325C16.5 17.7427 16.3262 18.1433 16.0167 18.4387C15.7073 18.7341 15.2876 18.9 14.85 18.9C14.4124 18.9 13.9927 18.7341 13.6833 18.4387C13.3738 18.1433 13.2 17.7427 13.2 17.325C13.2 16.9073 13.3738 16.5067 13.6833 16.2113C13.9927 15.9159 14.4124 15.75 14.85 15.75C15.2876 15.75 15.7073 15.9159 16.0167 16.2113C16.3262 16.5067 16.5 16.9073 16.5 17.325Z" fill="white"/>
<path d="M3.29995 4.2002C3.00821 4.2002 2.72842 4.31082 2.52213 4.50773C2.31584 4.70465 2.19995 4.97172 2.19995 5.2502V15.7502C2.19995 16.0287 2.31584 16.2957 2.52213 16.4927C2.72842 16.6896 3.00821 16.8002 3.29995 16.8002H4.45495C4.58118 16.2068 4.91845 15.6733 5.40961 15.2901C5.90077 14.9069 6.51561 14.6976 7.14995 14.6976C7.7843 14.6976 8.39914 14.9069 8.89029 15.2901C9.38145 15.6733 9.71872 16.2068 9.84495 16.8002H11C11.2917 16.8002 11.5715 16.6896 11.7778 16.4927C11.9841 16.2957 12.1 16.0287 12.1 15.7502V5.2502C12.1 4.97172 11.9841 4.70465 11.7778 4.50773C11.5715 4.31082 11.2917 4.2002 11 4.2002H3.29995ZM15.4 7.3502C15.1082 7.3502 14.8284 7.46082 14.6221 7.65773C14.4158 7.85465 14.3 8.12172 14.3 8.4002V14.7527C14.6539 14.6837 15.0186 14.6819 15.3732 14.7475C15.7278 14.813 16.0655 14.9446 16.3668 15.1348C16.6682 15.3249 16.9273 15.5698 17.1295 15.8556C17.3316 16.1414 17.4728 16.4623 17.545 16.8002H18.7C18.9917 16.8002 19.2715 16.6896 19.4778 16.4927C19.6841 16.2957 19.8 16.0287 19.8 15.7502V8.4002C19.8 8.12172 19.6841 7.85465 19.4778 7.65773C19.2715 7.46082 18.9917 7.3502 18.7 7.3502H15.4Z" fill="white"/>
</svg>
