<svg width="22" height="21" viewBox="0 0 22 21" fill="none" xmlns="http://www.w3.org/2000/svg">
<path d="M9.9001 6.30039C9.9001 7.13582 9.55242 7.93704 8.93355 8.52778C8.31468 9.11852 7.47531 9.45039 6.6001 9.45039C5.72488 9.45039 4.88552 9.11852 4.26665 8.52778C3.64778 7.93704 3.3001 7.13582 3.3001 6.30039C3.3001 5.46496 3.64778 4.66374 4.26665 4.073C4.88552 3.48226 5.72488 3.15039 6.6001 3.15039C7.47531 3.15039 8.31468 3.48226 8.93355 4.073C9.55242 4.66374 9.9001 5.46496 9.9001 6.30039ZM18.7001 6.30039C18.7001 6.71405 18.6147 7.12367 18.4489 7.50584C18.2831 7.88802 18.04 8.23527 17.7336 8.52778C17.4271 8.82028 17.0633 9.05231 16.663 9.21061C16.2626 9.36891 15.8335 9.45039 15.4001 9.45039C14.9667 9.45039 14.5376 9.36891 14.1372 9.21061C13.7369 9.05231 13.3731 8.82028 13.0666 8.52778C12.7602 8.23527 12.5171 7.88802 12.3513 7.50584C12.1855 7.12367 12.1001 6.71405 12.1001 6.30039C12.1001 5.46496 12.4478 4.66374 13.0666 4.073C13.6855 3.48226 14.5249 3.15039 15.4001 3.15039C16.2753 3.15039 17.1147 3.48226 17.7336 4.073C18.3524 4.66374 18.7001 5.46496 18.7001 6.30039ZM14.2231 17.8504C14.2737 17.507 14.3001 17.1574 14.3001 16.8004C14.3026 15.1507 13.7212 13.5486 12.6501 12.2539C13.4862 11.7931 14.4346 11.5505 15.4001 11.5505C16.3655 11.5505 17.3139 11.7931 18.15 12.2539C18.9861 12.7146 19.6805 13.3774 20.1632 14.1754C20.6459 14.9735 20.9001 15.8788 20.9001 16.8004V17.8504H14.2231ZM6.6001 11.5504C8.05879 11.5504 9.45774 12.1035 10.4892 13.0881C11.5206 14.0726 12.1001 15.408 12.1001 16.8004V17.8504H1.1001V16.8004C1.1001 15.408 1.67956 14.0726 2.71101 13.0881C3.74246 12.1035 5.14141 11.5504 6.6001 11.5504Z" fill="white"/>
</svg>
