<svg width="16" height="16" viewBox="0 0 16 16" fill="none" xmlns="http://www.w3.org/2000/svg">
<path fill-rule="evenodd" clip-rule="evenodd" d="M13.3654 4.23423C13.5154 4.38425 13.5997 4.5877 13.5997 4.79983C13.5997 5.01196 13.5154 5.21541 13.3654 5.36543L6.96544 11.7654C6.81542 11.9154 6.61197 11.9997 6.39984 11.9997C6.18771 11.9997 5.98426 11.9154 5.83424 11.7654L2.63424 8.56543C2.48851 8.41455 2.40788 8.21247 2.4097 8.00271C2.41152 7.79295 2.49566 7.5923 2.64398 7.44397C2.79231 7.29565 2.99296 7.21151 3.20272 7.20969C3.41247 7.20787 3.61456 7.2885 3.76544 7.43423L6.39984 10.0686L12.2342 4.23423C12.3843 4.08425 12.5877 4 12.7998 4C13.012 4 13.2154 4.08425 13.3654 4.23423Z" fill="black"/>
</svg>
