<svg width="22" height="21" viewBox="0 0 22 21" fill="none" xmlns="http://www.w3.org/2000/svg">
<path fill-rule="evenodd" clip-rule="evenodd" d="M4.3999 4.19961C4.3999 3.64265 4.63169 3.10851 5.04427 2.71469C5.45685 2.32086 6.01643 2.09961 6.5999 2.09961H15.3999C15.9834 2.09961 16.543 2.32086 16.9555 2.71469C17.3681 3.10851 17.5999 3.64265 17.5999 4.19961V16.7996C17.5999 17.3566 17.3681 17.8907 16.9555 18.2845C16.543 18.6784 15.9834 18.8996 15.3999 18.8996H6.5999C6.01643 18.8996 5.45685 18.6784 5.04427 18.2845C4.63169 17.8907 4.3999 17.3566 4.3999 16.7996V4.19961ZM6.5999 4.19961V16.7996H15.3999V4.19961H6.5999Z" fill="white"/>
</svg>
