<svg width="22" height="22" viewBox="0 0 22 22" fill="none" xmlns="http://www.w3.org/2000/svg">
<path d="M3.30005 4.70039C3.30005 4.42191 3.41594 4.15484 3.62223 3.95793C3.82852 3.76102 4.10831 3.65039 4.40005 3.65039H17.6C17.8918 3.65039 18.1716 3.76102 18.3779 3.95793C18.5842 4.15484 18.7 4.42191 18.7 4.70039V6.80039C18.7 7.07887 18.5842 7.34594 18.3779 7.54285C18.1716 7.73977 17.8918 7.85039 17.6 7.85039H4.40005C4.10831 7.85039 3.82852 7.73977 3.62223 7.54285C3.41594 7.34594 3.30005 7.07887 3.30005 6.80039V4.70039ZM3.30005 11.0004C3.30005 10.7219 3.41594 10.4548 3.62223 10.2579C3.82852 10.061 4.10831 9.95039 4.40005 9.95039H11C11.2918 9.95039 11.5716 10.061 11.7779 10.2579C11.9842 10.4548 12.1 10.7219 12.1 11.0004V17.3004C12.1 17.5789 11.9842 17.8459 11.7779 18.0429C11.5716 18.2398 11.2918 18.3504 11 18.3504H4.40005C4.10831 18.3504 3.82852 18.2398 3.62223 18.0429C3.41594 17.8459 3.30005 17.5789 3.30005 17.3004V11.0004ZM15.4 9.95039C15.1083 9.95039 14.8285 10.061 14.6222 10.2579C14.4159 10.4548 14.3 10.7219 14.3 11.0004V17.3004C14.3 17.5789 14.4159 17.8459 14.6222 18.0429C14.8285 18.2398 15.1083 18.3504 15.4 18.3504H17.6C17.8918 18.3504 18.1716 18.2398 18.3779 18.0429C18.5842 17.8459 18.7 17.5789 18.7 17.3004V11.0004C18.7 10.7219 18.5842 10.4548 18.3779 10.2579C18.1716 10.061 17.8918 9.95039 17.6 9.95039H15.4Z" fill="white"/>
</svg>
