<svg width="22" height="22" viewBox="0 0 22 22" fill="none" xmlns="http://www.w3.org/2000/svg">
<path d="M2.19995 12.0504C2.19995 11.7719 2.31584 11.5048 2.52213 11.3079C2.72842 11.111 3.00821 11.0004 3.29995 11.0004H5.49995C5.79169 11.0004 6.07148 11.111 6.27777 11.3079C6.48406 11.5048 6.59995 11.7719 6.59995 12.0504V17.3004C6.59995 17.5789 6.48406 17.8459 6.27777 18.0429C6.07148 18.2398 5.79169 18.3504 5.49995 18.3504H3.29995C3.00821 18.3504 2.72842 18.2398 2.52213 18.0429C2.31584 17.8459 2.19995 17.5789 2.19995 17.3004V12.0504ZM8.79995 7.85039C8.79995 7.57191 8.91584 7.30484 9.12213 7.10793C9.32842 6.91102 9.60821 6.80039 9.89995 6.80039H12.1C12.3917 6.80039 12.6715 6.91102 12.8778 7.10793C13.0841 7.30484 13.2 7.57191 13.2 7.85039V17.3004C13.2 17.5789 13.0841 17.8459 12.8778 18.0429C12.6715 18.2398 12.3917 18.3504 12.1 18.3504H9.89995C9.60821 18.3504 9.32842 18.2398 9.12213 18.0429C8.91584 17.8459 8.79995 17.5789 8.79995 17.3004V7.85039ZM15.4 4.70039C15.4 4.42191 15.5158 4.15484 15.7221 3.95793C15.9284 3.76102 16.2082 3.65039 16.5 3.65039H18.7C18.9917 3.65039 19.2715 3.76102 19.4778 3.95793C19.6841 4.15484 19.8 4.42191 19.8 4.70039V17.3004C19.8 17.5789 19.6841 17.8459 19.4778 18.0429C19.2715 18.2398 18.9917 18.3504 18.7 18.3504H16.5C16.2082 18.3504 15.9284 18.2398 15.7221 18.0429C15.5158 17.8459 15.4 17.5789 15.4 17.3004V4.70039Z" fill="white"/>
</svg>
