<svg width="145" height="58" viewBox="0 0 145 58" fill="none" xmlns="http://www.w3.org/2000/svg">
<path d="M53.3333 1.86665C43.3333 4.26665 37.0667 9.46665 23.8667 25.8666L12.6667 39.6V20.8V1.99998H6.66666H0.666664V29.3333V56.6667H5.86666C10.6667 56.6667 11.6 56 18.5333 47.4667C30 33.4667 28.8 33.6 36.8 46L43.7333 56.8L65.4667 56.4C86 56 87.3333 55.8667 90.4 52.9333C92.2667 51.2 97.4667 41.4667 102 31.2C106.667 21.0666 110.8 12.6666 111.2 12.6666C112 12.6666 124.267 38.9333 127.2 46.2667C127.867 48.2667 116.8 46.1333 110.8 43.0666L105.6 40.4L108.533 44.5333C113.733 51.7333 122.267 55.7333 134.133 56.4L144.667 57.0667L142.8 52.5333C141.733 50 136 37.7333 130.133 25.3333L119.333 2.66665H111.2H103.067L93.4667 23.2C88.1333 34.5333 82.5333 44.6666 81.0667 45.6C79.2 46.9333 75.0667 47.3333 67.8667 47.0667L57.3333 46.6666L69.2 38.6666C83.0667 29.4666 86.2667 25.6 86.2667 18.6666C86.2667 10.4 79.2 3.33331 69.0667 1.46664C64.8 0.79998 64.6667 0.79998 64.6667 5.46664C64.6667 9.46664 65.2 10.4 68.5333 11.4666C72.9333 13.0666 75.8667 18.4 74.1333 21.7333C72 25.6 65.7333 30.8 56.9333 35.8666C52.2667 38.5333 48.1333 40.6666 47.6 40.6666C47.0667 40.6666 44.4 37.0666 41.7333 32.5333L36.6667 24.5333L42.4 18.9333C45.7333 15.6 50.2667 12.5333 53.7333 11.6C58.9333 9.99998 59.3333 9.59998 59.3333 5.33331C59.3333 2.79998 58.9333 0.666649 58.4 0.79998C57.7333 0.933315 55.6 1.33331 53.3333 1.86665Z" fill="black"/>
</svg>
