<?xml version="1.0" standalone="no"?>
<!DOCTYPE svg PUBLIC "-//W3C//DTD SVG 20010904//EN"
 "http://www.w3.org/TR/2001/REC-SVG-20010904/DTD/svg10.dtd">
<svg version="1.0" xmlns="http://www.w3.org/2000/svg"
 width="114.000000pt" height="50.000000pt" viewBox="0 0 114.000000 50.000000"
 preserveAspectRatio="xMidYMid meet">

<g transform="translate(0.000000,50.000000) scale(0.100000,-0.100000)"
fill="#000000" stroke="none">
<path d="M445 441 c-75 -18 -122 -57 -221 -180 l-84 -103 0 141 0 141 -45 0
-45 0 0 -205 0 -205 39 0 c36 0 43 5 95 69 86 105 77 104 137 11 l52 -81 163
3 c154 3 164 4 187 26 14 13 53 86 87 163 35 76 66 139 69 139 6 0 98 -197
120 -252 5 -15 -78 1 -123 24 l-39 20 22 -31 c39 -54 103 -84 192 -89 l79 -5
-14 34 c-8 19 -51 111 -95 204 l-81 170 -61 0 -61 0 -72 -154 c-40 -85 -82
-161 -93 -168 -14 -10 -45 -13 -99 -11 l-79 3 89 60 c104 69 128 98 128 150 0
62 -53 115 -129 129 -32 5 -33 5 -33 -30 0 -30 4 -37 29 -45 33 -12 55 -52 42
-77 -16 -29 -63 -68 -129 -106 -35 -20 -66 -36 -70 -36 -4 0 -24 27 -44 61
l-38 60 43 42 c25 25 59 48 85 55 39 12 42 15 42 47 0 19 -3 35 -7 34 -5 -1
-21 -4 -38 -8z"/>
</g>
</svg>
