<svg width="380" height="148" viewBox="0 0 380 148" fill="none" xmlns="http://www.w3.org/2000/svg">
<path d="M138.981 2.82099C112.593 9.13312 96.0556 22.8094 61.2222 65.9423L31.6667 102.062V52.6167V3.17167H15.8333H0V75.0598V146.948H13.7222C26.3889 146.948 28.8519 145.195 47.1481 122.751C77.4074 85.9307 74.2407 86.2814 95.3519 118.894L113.648 147.299L171 146.247C225.185 145.195 228.704 144.844 236.796 137.129C241.722 132.57 255.444 106.971 267.407 79.9693C279.722 53.318 290.63 31.2256 291.685 31.2256C293.796 31.2256 326.167 100.308 333.907 119.595C335.667 124.856 306.463 119.245 290.63 111.179L276.907 104.166L284.648 115.037C298.37 133.973 320.889 144.493 352.204 146.247L380 148L375.074 136.077C372.259 129.414 357.13 97.1523 341.648 64.5396L313.148 4.92503H291.685H270.222L244.889 58.9288C230.815 88.7361 216.037 115.387 212.167 117.842C207.241 121.349 196.333 122.401 177.333 121.699L149.537 120.647L180.852 99.607C217.444 75.4105 225.889 65.2409 225.889 47.0059C225.889 25.2641 207.241 6.6784 180.5 1.76896C169.241 0.0155923 168.889 0.0155926 168.889 12.2892C168.889 22.8094 170.296 25.2641 179.093 28.0695C190.704 32.2776 198.444 46.3046 193.87 55.0714C188.241 65.2409 171.704 78.9172 148.481 92.2428C136.167 99.2563 125.259 104.867 123.852 104.867C122.444 104.867 115.407 95.3989 108.37 83.476L95 62.4356L110.13 47.7073C118.926 38.9404 130.889 30.8749 140.037 28.4202C153.759 24.2121 154.815 23.1601 154.815 11.9385C154.815 5.27571 153.759 -0.335075 152.352 0.0155989C150.593 0.366273 144.963 1.41829 138.981 2.82099Z" fill="white"/>
</svg>
