<svg width="152" height="67" viewBox="0 0 152 67" fill="none" xmlns="http://www.w3.org/2000/svg">
<path d="M59.3333 7.86665C49.3333 10.2666 43.0667 15.4666 29.8667 31.8666L18.6667 45.6V26.8V7.99998H12.6667H6.66666V35.3333V62.6667H11.8667C16.6667 62.6667 17.6 62 24.5333 53.4666C36 39.4666 34.8 39.6 42.8 52L49.7333 62.8L71.4667 62.4C92 62 93.3333 61.8667 96.4 58.9333C98.2667 57.2 103.467 47.4667 108 37.2C112.667 27.0666 116.8 18.6666 117.2 18.6666C118 18.6666 130.267 44.9333 133.2 52.2666C133.867 54.2666 122.8 52.1333 116.8 49.0666L111.6 46.4L114.533 50.5333C119.733 57.7333 128.267 61.7333 140.133 62.4L150.667 63.0667L148.8 58.5333C147.733 56 142 43.7333 136.133 31.3333L125.333 8.66665H117.2H109.067L99.4667 29.2C94.1333 40.5333 88.5333 50.6666 87.0667 51.6C85.2 52.9333 81.0667 53.3333 73.8667 53.0667L63.3333 52.6666L75.2 44.6666C89.0667 35.4666 92.2667 31.6 92.2667 24.6666C92.2667 16.4 85.2 9.33331 75.0667 7.46665C70.8 6.79998 70.6667 6.79998 70.6667 11.4666C70.6667 15.4666 71.2 16.4 74.5333 17.4666C78.9333 19.0666 81.8667 24.4 80.1333 27.7333C78 31.6 71.7333 36.8 62.9333 41.8666C58.2667 44.5333 54.1333 46.6666 53.6 46.6666C53.0667 46.6666 50.4 43.0666 47.7333 38.5333L42.6667 30.5333L48.4 24.9333C51.7333 21.6 56.2667 18.5333 59.7333 17.6C64.9333 16 65.3333 15.6 65.3333 11.3333C65.3333 8.79998 64.9333 6.66665 64.4 6.79998C63.7333 6.93331 61.6 7.33331 59.3333 7.86665Z" fill="black"/>
</svg>
